# xmcd
#
# Track frame offsets: 
#        187
#        30500
#        45022
#        57500
#        69280
#        78827
#        106170
#        121120
#        134685
#        150040
#
# Disc length: 2163 seconds
#
# Revision: 2
# Processed by: cddbd v1.4PL0 Copyright (c) Steve Scherf et al.
# Submitted via: ExactAudioCopy v0.90b4
#
DISCID=6908710a
DTITLE=Poco - Rose of Cimarron
DYEAR=1976
DGENRE=Rock
TTITLE0=Rose of Cimarron
TTITLE1=Stealaway
TTITLE2=Just Like Me
TTITLE3=Company's Comin'
TTITLE4=Slow Poke
TTITLE5=Too Many Nights Too Long
TTITLE6=P.N.S. (When You Come Around)
TTITLE7=Starin' at the Sky
TTITLE8=All Alone Together
TTITLE9=Tulsa Turnaround
EXTD=
EXTT0=
EXTT1=
EXTT2=
EXTT3=
EXTT4=
EXTT5=
EXTT6=
EXTT7=
EXTT8=
EXTT9=
PLAYORDER=
